<svg width="127" height="165" viewBox="0 0 127 165" fill="none" xmlns="http://www.w3.org/2000/svg">
<path id="Vector" opacity="0.15" d="M76.3009 44.7098C69.3403 18.9509 45.8094 0 17.8472 0C-15.6019 0 -42.7077 27.1026 -42.7077 60.5255C-42.7077 60.7743 -42.6877 61.0132 -42.6877 61.2521C-70.8192 64.6163 -92 79.1978 -92 96.6955C-92 106.967 -84.6808 116.234 -72.9503 122.823C-73.6772 125.281 -74.0755 127.829 -74.0755 130.457C-74.0755 149.099 -54.6872 164.218 -30.758 164.218C-15.4824 164.218 -2.05892 158.047 5.64861 148.741C18.5244 158.366 35.4829 164.218 54.0746 164.218C94.325 164.218 126.958 136.817 126.958 103.006C126.958 75.7141 105.687 52.6027 76.3009 44.7098Z" fill="#C6C6C6"/>
</svg>
