<svg width="177" height="186" viewBox="0 0 177 186" fill="none" xmlns="http://www.w3.org/2000/svg">
<path id="Vector" opacity="0.05" d="M119.806 51.0748C111.997 22.1634 85.5997 0.89328 54.2306 0.89328C16.7062 0.89328 -13.702 31.3127 -13.702 68.826C-13.702 69.1053 -13.6797 69.3734 -13.6797 69.6415C-45.2386 73.4174 -69 89.7833 -69 109.423C-69 120.951 -60.7891 131.352 -47.6293 138.747C-48.4448 141.506 -48.8917 144.366 -48.8917 147.316C-48.8917 168.239 -27.1411 185.209 -0.296486 185.209C16.8403 185.209 31.8992 178.282 40.5458 167.837C54.9903 178.64 74.015 185.209 94.8718 185.209C140.026 185.209 176.635 154.454 176.635 116.505C176.623 85.8734 152.762 59.9336 119.806 51.0748Z" fill="#C6C6C6"/>
</svg>
