<svg width="299" height="238" viewBox="0 0 299 238" fill="none" xmlns="http://www.w3.org/2000/svg">
<g clip-path="url(#clip0_1_137)">
<path d="M218.884 225.942C175.22 265.761 108.448 263.637 69.745 221.198C31.0418 178.758 35.0633 112.073 78.7274 72.2535C122.391 32.4338 189.163 34.5579 227.867 76.9977C266.57 119.438 262.548 186.122 218.884 225.942Z" fill="#F472B7"/>
<path d="M104.344 129.984C106.961 132.853 108.006 129.478 110.957 126.787C113.909 124.095 117.654 123.11 115.033 120.236C112.412 117.362 107.903 117.223 104.951 119.915C101.995 122.602 101.723 127.11 104.344 129.984Z" fill="white"/>
<path d="M83.9197 148.61C86.536 151.479 87.5813 148.105 90.5329 145.413C93.4845 142.721 97.2297 141.736 94.6088 138.862C91.9878 135.988 87.4786 135.85 84.527 138.541C81.5707 141.228 81.2988 145.736 83.9197 148.61Z" fill="white"/>
<path d="M101.157 157.316C106.268 162.92 115.087 163.201 120.853 157.942C126.62 152.684 127.151 143.876 122.04 138.272C116.929 132.667 117.72 142.925 111.953 148.183C106.187 153.442 96.0461 151.711 101.157 157.316Z" fill="white"/>
</g>
<defs>
<clipPath id="clip0_1_137">
<rect width="214" height="208" fill="white" transform="matrix(-0.738886 0.673831 0.673831 0.738886 158.122 0)"/>
</clipPath>
</defs>
</svg>
