<svg width="122" height="122" viewBox="0 0 122 122" fill="none" xmlns="http://www.w3.org/2000/svg">
<g id="red_cartoon 4" clip-path="url(#clip0_1_125)">
<g id="Group">
<path id="Vector" d="M85.6544 95.4833C105.586 81.4273 110.668 54.3283 97.0059 34.9559C83.344 15.5835 56.1114 11.2738 36.1802 25.3298C16.249 39.3859 11.1668 66.4849 24.8287 85.8573C38.4906 105.23 65.7232 109.539 85.6544 95.4833Z" fill="#FAD34F"/>
<path id="Vector_2" d="M57.1683 40.788C58.0918 42.0975 56.639 42.2187 55.2917 43.1688C53.9444 44.119 53.2143 45.5408 52.2891 44.2289C51.3639 42.917 51.7092 41.0874 53.0565 40.1372C54.4021 39.1847 56.2431 39.4761 57.1683 40.788Z" fill="white"/>
<path id="Vector_3" d="M66.4913 34.2131C67.4148 35.5226 65.962 35.6438 64.6147 36.594C63.2674 37.5441 62.5373 38.9659 61.6121 37.654C60.6869 36.3422 61.0322 34.5125 62.3795 33.5624C63.7251 32.6099 65.5661 32.9012 66.4913 34.2131Z" fill="white"/>
<path id="Vector_4" d="M68.467 41.9342C70.2711 44.4925 69.5999 48.0717 66.9678 49.9279C64.3358 51.7841 60.7389 51.2149 58.9348 48.6566C57.1306 46.0983 61.1942 47.3293 63.8262 45.4731C66.4583 43.6169 66.6628 39.376 68.467 41.9342Z" fill="white"/>
</g>
</g>
<defs>
<clipPath id="clip0_1_125">
<rect width="88.3204" height="85.8441" fill="white" transform="translate(0 50.9014) rotate(-35.1926)"/>
</clipPath>
</defs>
</svg>
